<svg width="43" height="42" viewBox="0 0 43 42" fill="none"
  xmlns="http://www.w3.org/2000/svg">
  <path d="M35.6667 0.166687C36.2192 0.166687 36.7491 0.38618 37.1398 0.776881C37.5305 1.16758 37.75 1.69749 37.75 2.25002V10.0771L19.0021 28.8271L18.9896 37.6563L27.8354 37.6688L37.75 27.7542V39.75C37.75 40.3026 37.5305 40.8325 37.1398 41.2232C36.7491 41.6139 36.2192 41.8334 35.6667 41.8334H2.33333C1.7808 41.8334 1.25089 41.6139 0.860194 41.2232C0.469493 40.8325 0.25 40.3026 0.25 39.75V2.25002C0.25 1.69749 0.469493 1.16758 0.860194 0.776881C1.25089 0.38618 1.7808 0.166687 2.33333 0.166687H35.6667ZM39.3708 14.35L42.3167 17.2959L26.1125 33.5L23.1625 33.4959L23.1667 30.5542L39.3708 14.35ZM19 21H8.58333V25.1667H19V21ZM25.25 12.6667H8.58333V16.8334H25.25V12.6667Z" fill="#2B1628"/>
</svg>
