<svg width="17" height="16" viewBox="0 0 17 16" fill="none" xmlns="http://www.w3.org/2000/svg">
<path d="M14.9375 2.66667C14.877 2.66043 14.8159 2.66043 14.7553 2.66667H2.31087C2.23111 2.6679 2.15188 2.67986 2.07532 2.70222L8.49754 9.09778L14.9375 2.66667Z" fill="#FEFAF6"/>
<path d="M15.5953 3.28445L9.12417 9.7289C8.95762 9.89446 8.73233 9.98738 8.4975 9.98738C8.26267 9.98738 8.03738 9.89446 7.87084 9.7289L1.4575 3.33334C1.43779 3.40581 1.42733 3.48047 1.42639 3.55557V12.4445C1.42639 12.6802 1.52004 12.9063 1.68674 13.073C1.85344 13.2397 2.07953 13.3333 2.31528 13.3333H14.7597C14.9955 13.3333 15.2216 13.2397 15.3883 13.073C15.555 12.9063 15.6486 12.6802 15.6486 12.4445V3.55557C15.6451 3.46297 15.6271 3.37149 15.5953 3.28445V3.28445ZM2.92417 12.4445H2.30639V11.8089L5.5375 8.60445L6.16417 9.23112L2.92417 12.4445ZM14.7508 12.4445H14.1286L10.8886 9.23112L11.5153 8.60445L14.7464 11.8089L14.7508 12.4445Z" fill="#FEFAF6"/>
</svg>
