<svg width="20" height="21" viewBox="0 0 20 21" fill="none"
  xmlns="http://www.w3.org/2000/svg">
  <path d="M10.6896 9.62969H19.9738C19.6345 4.65041 15.6624 0.67313 10.6896 0.333374V9.62969Z" fill="#2B1628"/>
  <path fill-rule="evenodd" clip-rule="evenodd" d="M19.9738 9.62969C19.9698 9.57201 19.9654 9.51446 19.9605 9.45705C19.5472 4.61616 15.6966 0.760505 10.8621 0.346642C10.8047 0.341734 10.7472 0.33731 10.6896 0.333374V9.62969H19.9738ZM10.8621 9.45705H19.7875C19.3752 4.71167 15.6012 0.932767 10.8621 0.519923V9.45705Z" fill="#2B1628"/>
  <path d="M17.3745 17.1061C18.8721 15.4798 19.8403 13.357 20 11.0109H11.2872L17.3745 17.1061Z" fill="#2B1628"/>
  <path fill-rule="evenodd" clip-rule="evenodd" d="M20 11.0109H11.2872L17.3745 17.1061C17.4135 17.0637 17.4521 17.021 17.4904 16.978C18.8858 15.4097 19.7976 13.4003 19.9868 11.1835C19.9916 11.1261 19.9961 11.0685 20 11.0109ZM19.8137 11.1835H11.7035L17.3683 16.8557C18.733 15.3188 19.6254 13.3525 19.8137 11.1835Z" fill="#2B1628"/>
  <path d="M2.49584 16.1502C1.24555 14.5394 0.5 12.5179 0.5 10.3202C0.5 5.46986 4.12603 1.47002 8.81034 0.883812V9.82744L2.49584 16.1502Z" stroke="#21092A"/>
  <mask id="path-6-inside-1_376_882" fill="white">
    <path fill-rule="evenodd" clip-rule="evenodd" d="M9.31034 0.333374C9.25274 0.337309 9.19526 0.341733 9.13793 0.346641C4.01912 0.784797 0 5.0813 0 10.3203C0 12.7744 0.883906 15.0207 2.34752 16.7622C2.38464 16.8063 2.42214 16.8502 2.46 16.8937L9.31034 10.0344V0.333374ZM9.13793 0.519922C4.11446 0.957485 0.172414 5.1768 0.172414 10.3203C0.172414 12.7267 1.03706 14.9296 2.4699 16.6396L9.13793 9.96285V0.519922Z"/>
  </mask>
  <path fill-rule="evenodd" clip-rule="evenodd" d="M9.31034 0.333374C9.25274 0.337309 9.19526 0.341733 9.13793 0.346641C4.01912 0.784797 0 5.0813 0 10.3203C0 12.7744 0.883906 15.0207 2.34752 16.7622C2.38464 16.8063 2.42214 16.8502 2.46 16.8937L9.31034 10.0344V0.333374ZM9.13793 0.519922C4.11446 0.957485 0.172414 5.1768 0.172414 10.3203C0.172414 12.7267 1.03706 14.9296 2.4699 16.6396L9.13793 9.96285V0.519922Z" fill="#2B1628"/>
  <path d="M9.31034 0.333374H14.3103V-5.01986L8.96956 -4.655L9.31034 0.333374ZM9.13793 0.346641L8.7115 -4.63514L8.7115 -4.63514L9.13793 0.346641ZM2.34752 16.7622L6.17523 13.5452L6.17521 13.5452L2.34752 16.7622ZM2.46 16.8937L-1.31203 20.1757L2.2082 24.2215L5.99785 20.4269L2.46 16.8937ZM9.31034 10.0344L12.8482 13.5676L14.3103 12.1035V10.0344H9.31034ZM9.13793 0.519922H14.1379V-4.93453L8.70405 -4.46122L9.13793 0.519922ZM2.4699 16.6396L-1.36259 19.8509L2.14665 24.039L6.00775 20.1728L2.4699 16.6396ZM9.13793 9.96285L12.6758 13.4961L14.1379 12.032V9.96285H9.13793ZM8.96956 -4.655C8.88337 -4.64911 8.79735 -4.64249 8.7115 -4.63514L9.56435 5.32842C9.59318 5.32596 9.6221 5.32373 9.65113 5.32175L8.96956 -4.655ZM8.7115 -4.63514C1.02529 -3.97722 -5 2.46588 -5 10.3203H5C5 7.69672 7.01295 5.54682 9.56436 5.32842L8.7115 -4.63514ZM-5 10.3203C-5 13.9978 -3.67047 17.373 -1.48017 19.9791L6.17521 13.5452C5.43829 12.6684 5 11.551 5 10.3203H-5ZM-1.48019 19.9791C-1.42464 20.0452 -1.36859 20.1107 -1.31203 20.1757L6.23203 13.6117C6.21286 13.5896 6.19393 13.5675 6.17523 13.5452L-1.48019 19.9791ZM5.17241 10.3203C5.17241 7.78963 7.11228 5.7153 9.57181 5.50106L8.70405 -4.46122C1.11665 -3.80033 -4.82759 2.56398 -4.82759 10.3203H5.17241ZM6.30239 13.4284C5.59347 12.5823 5.17241 11.5061 5.17241 10.3203H-4.82759C-4.82759 13.9473 -3.51935 17.2769 -1.36259 19.8509L6.30239 13.4284ZM5.60008 6.42963L-1.06795 13.1064L6.00775 20.1728L12.6758 13.4961L5.60008 6.42963ZM4.13793 0.519922V9.96285H14.1379V0.519922H4.13793ZM5.99785 20.4269L12.8482 13.5676L5.77249 6.50114L-1.07785 13.3605L5.99785 20.4269ZM14.3103 10.0344V0.333374H4.31034V10.0344H14.3103Z" fill="#2B1628" mask="url(#path-6-inside-1_376_882)"/>
  <path d="M9.79794 11.499L3.43518 17.8701C5.19208 19.4028 7.4869 20.3334 10 20.3334C12.4104 20.3334 14.6193 19.4774 16.3452 18.0549L9.79794 11.499Z" fill="#2B1628"/>
  <path fill-rule="evenodd" clip-rule="evenodd" d="M3.43518 17.8701C3.47864 17.908 3.52242 17.9456 3.56653 17.9827C5.30574 19.4483 7.54907 20.3334 10 20.3334C12.348 20.3334 14.505 19.5211 16.2104 18.164C16.2556 18.128 16.3006 18.0916 16.3452 18.0549L9.79794 11.499L3.43518 17.8701ZM3.68891 17.8602C5.39671 19.2949 7.59667 20.1607 10 20.1607C12.3005 20.1607 14.414 19.3675 16.0877 18.0411L9.79794 11.7432L3.68891 17.8602Z" fill="#2B1628"/>
</svg>
