<svg width="36" height="36" viewBox="0 0 36 36" fill="none"
  xmlns="http://www.w3.org/2000/svg">
  <path d="M4.5 0C3.30653 0 2.16193 0.474106 1.31802 1.31802C0.474106 2.16193 0 3.30653 0 4.5L0 31.5C0 32.6935 0.474106 33.8381 1.31802 34.682C2.16193 35.5259 3.30653 36 4.5 36H31.5C32.6935 36 33.8381 35.5259 34.682 34.682C35.5259 33.8381 36 32.6935 36 31.5V4.5C36 3.30653 35.5259 2.16193 34.682 1.31802C33.8381 0.474106 32.6935 0 31.5 0L4.5 0ZM18 9C19.2038 9 20.1465 10.0395 20.025 11.2387L19.2375 19.1295C19.211 19.4395 19.0692 19.7283 18.84 19.9387C18.6109 20.1491 18.3111 20.2659 18 20.2659C17.6889 20.2659 17.3891 20.1491 17.16 19.9387C16.9308 19.7283 16.789 19.4395 16.7625 19.1295L15.975 11.2387C15.9467 10.9558 15.978 10.67 16.0669 10.3999C16.1558 10.1297 16.3003 9.88121 16.491 9.6703C16.6818 9.45939 16.9146 9.29079 17.1745 9.17534C17.4344 9.05989 17.7156 9.00016 18 9ZM18.0045 22.5C18.6012 22.5 19.1735 22.7371 19.5955 23.159C20.0174 23.581 20.2545 24.1533 20.2545 24.75C20.2545 25.3467 20.0174 25.919 19.5955 26.341C19.1735 26.7629 18.6012 27 18.0045 27C17.4078 27 16.8355 26.7629 16.4135 26.341C15.9916 25.919 15.7545 25.3467 15.7545 24.75C15.7545 24.1533 15.9916 23.581 16.4135 23.159C16.8355 22.7371 17.4078 22.5 18.0045 22.5Z" fill="#2B1628"/>
</svg>
