<svg width="17" height="16" viewBox="0 0 17 16" fill="none" xmlns="http://www.w3.org/2000/svg">
<path fill-rule="evenodd" clip-rule="evenodd" d="M8.5686 0.197357C4.1486 0.197357 0.568604 3.77736 0.568604 8.19736C0.568604 11.7374 2.8586 14.7274 6.0386 15.7874C6.4386 15.8574 6.5886 15.6174 6.5886 15.4074C6.5886 15.2174 6.5786 14.5874 6.5786 13.9174C4.5686 14.2874 4.0486 13.4274 3.8886 12.9774C3.7986 12.7474 3.4086 12.0374 3.0686 11.8474C2.7886 11.6974 2.3886 11.3274 3.0586 11.3174C3.6886 11.3074 4.1386 11.8974 4.2886 12.1374C5.0086 13.3474 6.1586 13.0074 6.6186 12.7974C6.6886 12.2774 6.8986 11.9274 7.1286 11.7274C5.3486 11.5274 3.4886 10.8374 3.4886 7.77736C3.4886 6.90736 3.7986 6.18736 4.3086 5.62736C4.2286 5.42736 3.9486 4.60736 4.3886 3.50736C4.3886 3.50736 5.0586 3.29736 6.5886 4.32736C7.2286 4.14736 7.9086 4.05736 8.5886 4.05736C9.2686 4.05736 9.9486 4.14736 10.5886 4.32736C12.1186 3.28736 12.7886 3.50736 12.7886 3.50736C13.2286 4.60736 12.9486 5.42736 12.8686 5.62736C13.3786 6.18736 13.6886 6.89736 13.6886 7.77736C13.6886 10.8474 11.8186 11.5274 10.0386 11.7274C10.3286 11.9774 10.5786 12.4574 10.5786 13.2074C10.5786 14.2774 10.5686 15.1374 10.5686 15.4074C10.5686 15.6174 10.7186 15.8674 11.1186 15.7874C12.7067 15.2512 14.0867 14.2305 15.0644 12.8689C16.042 11.5074 16.5681 9.87355 16.5686 8.19736C16.5686 3.77736 12.9886 0.197357 8.5686 0.197357Z" fill="#FEFAF6"/>
</svg>
