<svg width="50" height="50" viewBox="0 0 50 50" fill="none"
  xmlns="http://www.w3.org/2000/svg">
  <path d="M6.25 0C4.5924 0 3.00269 0.65848 1.83058 1.83058C0.65848 3.00269 0 4.5924 0 6.25L0 43.75C0 45.4076 0.65848 46.9973 1.83058 48.1694C3.00269 49.3415 4.5924 50 6.25 50H43.75C45.4076 50 46.9973 49.3415 48.1694 48.1694C49.3415 46.9973 50 45.4076 50 43.75V6.25C50 4.5924 49.3415 3.00269 48.1694 1.83058C46.9973 0.65848 45.4076 0 43.75 0L6.25 0ZM17.175 18.8531C17.0743 18.8545 16.9743 18.8353 16.8813 18.7967C16.7882 18.7581 16.704 18.7009 16.6338 18.6287C16.5636 18.5564 16.5089 18.4706 16.473 18.3765C16.4371 18.2824 16.4207 18.1819 16.425 18.0812C16.7188 12.7844 21.0531 10.9375 25.0156 10.9375C29.3781 10.9375 33.3656 13.2187 33.3656 17.9375C33.3656 21.3125 31.3812 22.9187 29.4781 24.3656C27.175 26.1125 26.3219 26.7656 26.3219 29.0094V29.3375C26.3219 29.5447 26.2396 29.7434 26.0931 29.8899C25.9465 30.0364 25.7478 30.1187 25.5406 30.1187H23.0094C22.8043 30.1188 22.6075 30.0382 22.4613 29.8944C22.3152 29.7505 22.2314 29.555 22.2281 29.35L22.2156 28.6719C22.0969 25.775 23.7625 23.9906 25.8656 22.4625C27.7094 21.075 28.8812 20.1625 28.8812 18.1781C28.8812 15.6 26.9188 14.5281 24.775 14.5281C22.2656 14.5281 20.8594 16.0219 20.5812 18.0719C20.525 18.5 20.1812 18.8531 19.75 18.8531H17.1719H17.175ZM24.4406 38.9875C22.6156 38.9875 21.2875 37.7562 21.2875 36.0906C21.2875 34.3656 22.6156 33.1531 24.4438 33.1531C26.3469 33.1531 27.6563 34.3656 27.6563 36.0906C27.6563 37.7562 26.3438 38.9875 24.4406 38.9875Z" fill="#2B1628"/>
</svg>
