<svg width="40" height="40" viewBox="0 0 40 40" fill="none"
  xmlns="http://www.w3.org/2000/svg">
  <path d="M21.3793 18.5926H39.9475C39.2689 8.63407 31.3248 0.679511 21.3793 0V18.5926Z" fill="#2B1628"/>
  <path fill-rule="evenodd" clip-rule="evenodd" d="M39.9475 18.5926C39.9397 18.4773 39.9309 18.3622 39.921 18.2474C39.0944 8.56557 31.3932 0.854263 21.7241 0.0265361C21.6094 0.0167199 21.4945 0.00787179 21.3793 0V18.5926H39.9475ZM21.7241 18.2474H39.5749C38.7503 8.75659 31.2024 1.19879 21.7241 0.373099V18.2474Z" fill="#2B1628"/>
  <path d="M34.7489 33.5453C37.7441 30.2928 39.6807 26.0472 40 21.3549H22.5745L34.7489 33.5453Z" fill="#2B1628"/>
  <path fill-rule="evenodd" clip-rule="evenodd" d="M40 21.3549H22.5745L34.7489 33.5453C34.827 33.4606 34.9042 33.3752 34.9808 33.2892C37.7716 30.1526 39.5952 26.1337 39.9735 21.7001C39.9833 21.5853 39.9921 21.4702 40 21.3549ZM39.6274 21.7001H23.407L34.7366 33.0446C37.466 29.9708 39.2507 26.0381 39.6274 21.7001Z" fill="#2B1628"/>
  <path d="M18.6207 19.402V0C8.21931 0.710586 0 9.37849 0 19.9738C0 25.0066 1.85862 29.6022 4.92 33.1206L18.6207 19.402Z" fill="url(#paint0_linear_46_961)"/>
  <path fill-rule="evenodd" clip-rule="evenodd" d="M18.6207 0C18.5055 0.00787095 18.3905 0.0167182 18.2759 0.0265336C8.03823 0.902846 0 9.49585 0 19.9738C0 24.8821 1.76781 29.3746 4.69505 32.8576C4.76929 32.9459 4.84428 33.0336 4.92 33.1206L18.6207 19.402V0ZM18.2759 0.373096C8.22893 1.24822 0.344828 9.68685 0.344828 19.9738C0.344828 24.7867 2.07412 29.1924 4.93979 32.6125L18.2759 19.259V0.373096Z" fill="#2B1628"/>
  <path d="M19.5959 22.3314L6.87036 35.0736C10.3842 38.139 14.9738 40 20 40C24.8207 40 29.2386 38.2881 32.6904 35.443L19.5959 22.3314Z" fill="#2B1628"/>
  <path fill-rule="evenodd" clip-rule="evenodd" d="M6.87036 35.0736C6.95728 35.1494 7.04485 35.2245 7.13307 35.2988C10.6115 38.2299 15.0981 40 20 40C24.6961 40 29.01 38.3755 32.4208 35.6614C32.5113 35.5893 32.6011 35.5166 32.6904 35.443L19.5959 22.3314L6.87036 35.0736ZM7.37782 35.0537C10.7934 37.9232 15.1933 39.6547 20 39.6547C24.601 39.6547 28.828 38.0683 32.1753 35.4156L19.5959 22.8197L7.37782 35.0537Z" fill="#2B1628"/>
  <defs>
    <linearGradient id="paint0_linear_46_961" x1="0" y1="16.5603" x2="18.6207" y2="16.5603" gradientUnits="userSpaceOnUse">
      <stop stop-color="#EC008C"/>
      <stop offset="1" stop-color="#FC6767"/>
    </linearGradient>
  </defs>
</svg>
