<svg width="16" height="16" viewBox="0 0 16 16" fill="none"
  xmlns="http://www.w3.org/2000/svg">
  <path d="M8 0C3.58267 0 0 3.58267 0 8C0 12.4173 3.58267 16 8 16C12.4173 16 16 12.4173 16 8C16 3.58267 12.4193 0 8 0ZM3.94667 8.26867L3.98067 8.21467L6.06267 4.95867C6.06964 4.94796 6.07936 4.93933 6.09081 4.93367C6.10226 4.928 6.11502 4.92552 6.12776 4.92647C6.1405 4.92743 6.15275 4.93178 6.16323 4.93909C6.17371 4.94639 6.18203 4.95638 6.18733 4.968C6.534 5.74733 6.83533 6.71667 6.694 7.32C6.63533 7.568 6.47067 7.904 6.28467 8.21467C6.26081 8.26011 6.23478 8.30439 6.20667 8.34733C6.19993 8.35691 6.19093 8.36467 6.18045 8.36991C6.16998 8.37514 6.15837 8.3777 6.14667 8.37733H4.00867C3.99591 8.37753 3.98333 8.37427 3.97227 8.36789C3.96122 8.36152 3.95209 8.35227 3.94587 8.34112C3.93965 8.32998 3.93656 8.31736 3.93694 8.3046C3.93731 8.29184 3.94114 8.27943 3.948 8.26867H3.94667ZM13.2227 9.38867C13.2228 9.4029 13.2188 9.41687 13.2111 9.42884C13.2034 9.44081 13.1924 9.45026 13.1793 9.456C13.0173 9.52467 12.466 9.77933 12.2367 10.0973C11.6513 10.912 11.2047 12.0773 10.2047 12.0773H6.03533C5.68331 12.0768 5.33484 12.0069 5.00984 11.8717C4.68484 11.7364 4.38968 11.5384 4.14122 11.289C3.89277 11.0397 3.69589 10.7438 3.56185 10.4183C3.4278 10.0928 3.35921 9.74402 3.36 9.392V9.344C3.36 9.30533 3.392 9.27333 3.432 9.27333H5.75533C5.802 9.27333 5.83533 9.31533 5.832 9.36133C5.81467 9.512 5.84333 9.66733 5.91533 9.808C6.05267 10.088 6.33933 10.2627 6.648 10.2627H7.79867V9.36467H6.66C6.64666 9.36453 6.63361 9.36075 6.62225 9.35374C6.6109 9.34673 6.60167 9.33675 6.59557 9.32489C6.58946 9.31302 6.58671 9.29971 6.58761 9.2864C6.58851 9.27309 6.59302 9.26027 6.60067 9.24933L6.64267 9.18933C6.74933 9.03533 6.90333 8.79867 7.05667 8.528C7.16067 8.34533 7.262 8.15067 7.34333 7.95467C7.35933 7.92 7.372 7.88333 7.38667 7.848C7.40867 7.78533 7.43133 7.72667 7.44733 7.66867C7.46303 7.61949 7.47748 7.56991 7.49067 7.52C7.52867 7.35333 7.54467 7.17733 7.54467 6.99533C7.54467 6.92333 7.542 6.848 7.53533 6.77733C7.532 6.69933 7.522 6.62067 7.51267 6.54267C7.50521 6.47288 7.49453 6.40347 7.48067 6.33467C7.46273 6.2299 7.44093 6.12583 7.41533 6.02267L7.406 5.98267C7.386 5.91067 7.36867 5.84267 7.346 5.77133C7.28252 5.55227 7.20956 5.33607 7.12733 5.12333C7.09868 5.04331 7.06711 4.96437 7.03267 4.88667C6.98467 4.768 6.93533 4.66067 6.89067 4.56C6.86844 4.51687 6.84754 4.47307 6.828 4.42867C6.80632 4.38076 6.78342 4.33341 6.75933 4.28667C6.74333 4.25133 6.724 4.21733 6.71133 4.18533L6.57067 3.92667C6.55133 3.89133 6.58333 3.848 6.622 3.85933L7.502 4.09733H7.50867L7.624 4.13067L7.752 4.16667L7.79867 4.17933V3.65733C7.79867 3.40467 8 3.2 8.25133 3.2C8.31068 3.19984 8.36945 3.21169 8.4241 3.23483C8.47875 3.25797 8.52815 3.29193 8.56933 3.33467C8.65445 3.42052 8.70235 3.53644 8.70267 3.65733V4.43333L8.79667 4.45933C8.80333 4.46267 8.81133 4.466 8.81733 4.47067C8.84 4.48667 8.87333 4.512 8.91533 4.544C8.94867 4.56933 8.984 4.60133 9.02533 4.63533C9.15698 4.74259 9.28462 4.85466 9.408 4.97133C9.55067 5.104 9.71067 5.25933 9.864 5.432C9.90733 5.48133 9.94867 5.52933 9.992 5.58267C10.0333 5.63533 10.08 5.68667 10.1187 5.73733C10.1713 5.80667 10.2253 5.87867 10.2753 5.95333C10.2973 5.98867 10.3247 6.02533 10.3453 6.06067C10.4093 6.15533 10.464 6.25267 10.5167 6.35067C10.5393 6.39533 10.5613 6.44467 10.5807 6.49267C10.64 6.624 10.6867 6.75667 10.7153 6.89133C10.7248 6.91992 10.7313 6.94941 10.7347 6.97933V6.986C10.744 7.024 10.7473 7.066 10.7507 7.10867C10.7694 7.30571 10.7453 7.50449 10.68 7.69133C10.6593 7.74733 10.64 7.80467 10.6147 7.86067C10.5647 7.974 10.5073 8.08933 10.4387 8.19533C10.416 8.23533 10.3887 8.27667 10.3633 8.31667C10.3347 8.35867 10.304 8.39867 10.2787 8.43667C10.242 8.48715 10.2035 8.53629 10.1633 8.584C10.128 8.632 10.0927 8.68 10.0527 8.72333C9.99867 8.78867 9.946 8.85 9.88933 8.90867C9.85733 8.94733 9.82267 8.98733 9.78533 9.022C9.75067 9.062 9.71333 9.09733 9.68133 9.12933C9.62533 9.18533 9.58133 9.22733 9.54267 9.264L9.45133 9.34533C9.43862 9.3581 9.42135 9.36529 9.40333 9.36533H8.70267V10.2627H9.584C9.78067 10.2627 9.968 10.1933 10.12 10.064C10.1713 10.0193 10.3967 9.824 10.664 9.52933C10.6727 9.5193 10.6844 9.5123 10.6973 9.50933L13.1307 8.80467C13.1414 8.80158 13.1526 8.801 13.1635 8.80299C13.1745 8.80498 13.1848 8.80948 13.1937 8.81613C13.2026 8.82278 13.2099 8.83141 13.2149 8.84134C13.2199 8.85126 13.2226 8.86221 13.2227 8.87333V9.38867Z" fill="#2B1628"/>
</svg>
