<svg width="40" height="36" viewBox="0 0 40 36" fill="none"
  xmlns="http://www.w3.org/2000/svg">
  <path d="M28.75 15.5H25.58L29.91 7.99999C30.2415 7.42579 30.3313 6.74343 30.1597 6.103C29.9882 5.46256 29.5692 4.91652 28.995 4.58499L22.5 0.834992C21.9258 0.503486 21.2434 0.41365 20.603 0.585245C19.9626 0.756839 19.4165 1.17581 19.085 1.74999L12.835 12.575C12.5706 13.0325 12.4579 13.562 12.5131 14.0875C12.5684 14.613 12.7887 15.1075 13.1425 15.5H11.25C10.9185 15.5 10.6005 15.6317 10.3661 15.8661C10.1317 16.1005 10 16.4185 10 16.75C10 17.0815 10.1317 17.3995 10.3661 17.6339C10.6005 17.8683 10.9185 18 11.25 18H28.75C29.0815 18 29.3995 17.8683 29.6339 17.6339C29.8683 17.3995 30 17.0815 30 16.75C30 16.4185 29.8683 16.1005 29.6339 15.8661C29.3995 15.6317 29.0815 15.5 28.75 15.5ZM21.25 2.99999L27.745 6.74999L22.695 15.5H17.9L15 13.825L21.25 2.99999ZM31.3425 10.5L29.9 13H31.25L36.875 20.5H3.125L8.75 13H9.765C9.81603 12.8523 9.88134 12.71 9.96 12.575L11.16 10.5H8.75C8.36189 10.5 7.9791 10.5904 7.63197 10.7639C7.28483 10.9375 6.98287 11.1895 6.75 11.5L0.5 19.8325C0.175445 20.2652 0 20.7916 0 21.3325V33C0 33.663 0.263392 34.2989 0.732233 34.7678C1.20107 35.2366 1.83696 35.5 2.5 35.5H37.5C38.163 35.5 38.7989 35.2366 39.2678 34.7678C39.7366 34.2989 40 33.663 40 33V21.3325C40 20.7916 39.8246 20.2652 39.5 19.8325L33.25 11.5C33.0267 11.2017 32.7395 10.9571 32.4095 10.784C32.0794 10.611 31.7149 10.514 31.3425 10.5Z" fill="#2B1628" />
</svg>
