<svg width="33" height="30" viewBox="0 0 33 30" fill="none" xmlns="http://www.w3.org/2000/svg">
<path d="M4.375 30H1.875C1.37772 30 0.900806 29.842 0.549175 29.5607C0.197544 29.2794 0 28.8978 0 28.5V19.5C0 19.1022 0.197544 18.7206 0.549175 18.4393C0.900806 18.158 1.37772 18 1.875 18H4.375C4.87228 18 5.34919 18.158 5.70083 18.4393C6.05246 18.7206 6.25 19.1022 6.25 19.5V28.5C6.25 28.8978 6.05246 29.2794 5.70083 29.5607C5.34919 29.842 4.87228 30 4.375 30V30ZM21.875 30H19.375C18.8777 30 18.4008 29.842 18.0492 29.5607C17.6975 29.2794 17.5 28.8978 17.5 28.5V13.5C17.5 13.1022 17.6975 12.7206 18.0492 12.4393C18.4008 12.158 18.8777 12 19.375 12H21.875C22.3723 12 22.8492 12.158 23.2008 12.4393C23.5525 12.7206 23.75 13.1022 23.75 13.5V28.5C23.75 28.8978 23.5525 29.2794 23.2008 29.5607C22.8492 29.842 22.3723 30 21.875 30V30ZM30.625 30H28.125C27.6277 30 27.1508 29.842 26.7992 29.5607C26.4475 29.2794 26.25 28.8978 26.25 28.5V6.5C26.25 6.10218 26.4475 5.72064 26.7992 5.43934C27.1508 5.15804 27.6277 5 28.125 5H30.625C31.1223 5 31.5992 5.15804 31.9508 5.43934C32.3025 5.72064 32.5 6.10218 32.5 6.5V28.5C32.5 28.8978 32.3025 29.2794 31.9508 29.5607C31.5992 29.842 31.1223 30 30.625 30V30ZM13.125 30H10.625C10.1277 30 9.65081 29.842 9.29917 29.5607C8.94754 29.2794 8.75 28.8978 8.75 28.5V1.5C8.75 1.10218 8.94754 0.720644 9.29917 0.43934C9.65081 0.158035 10.1277 0 10.625 0H13.125C13.6223 0 14.0992 0.158035 14.4508 0.43934C14.8025 0.720644 15 1.10218 15 1.5V28.5C15 28.8978 14.8025 29.2794 14.4508 29.5607C14.0992 29.842 13.6223 30 13.125 30V30Z" fill="black"/>
</svg>
