<svg width="24" height="25" viewBox="0 0 24 25" fill="none"
  xmlns="http://www.w3.org/2000/svg">
  <path d="M16.4999 4.24998C16.4998 3.37013 16.8091 2.51826 17.3736 1.8434C17.9382 1.16854 18.722 0.713678 19.5881 0.558388C20.4541 0.403099 21.3472 0.557273 22.111 0.993936C22.8749 1.4306 23.4608 2.12195 23.7664 2.94702C24.072 3.77209 24.0778 4.67835 23.7827 5.50724C23.4876 6.33613 22.9105 7.03487 22.1522 7.4812C21.394 7.92753 20.5029 8.09304 19.635 7.94876C18.7671 7.80448 17.9775 7.35961 17.4044 6.69198L7.32741 11.372C7.55907 12.1061 7.55907 12.8938 7.32741 13.628L17.4044 18.308C18.0102 17.6035 18.8559 17.1489 19.7777 17.0325C20.6995 16.916 21.6317 17.1459 22.3937 17.6775C23.1557 18.2092 23.6931 19.0048 23.9019 19.9102C24.1107 20.8155 23.976 21.7662 23.5238 22.5778C23.0716 23.3895 22.3342 24.0044 21.4545 24.3034C20.5748 24.6024 19.6154 24.5642 18.7623 24.1961C17.9092 23.828 17.2231 23.1564 16.837 22.3113C16.4509 21.4662 16.3922 20.5079 16.6724 19.622L6.59541 14.942C6.09656 15.5233 5.43164 15.938 4.69008 16.1301C3.94852 16.3222 3.16591 16.2827 2.44752 16.0167C1.72913 15.7507 1.10942 15.2711 0.671771 14.6424C0.234118 14.0137 -0.000488281 13.266 -0.000488281 12.5C-0.000488281 11.7339 0.234118 10.9863 0.671771 10.3576C1.10942 9.72884 1.72913 9.24923 2.44752 8.98326C3.16591 8.71729 3.94852 8.67772 4.69008 8.86985C5.43164 9.06199 6.09656 9.47663 6.59541 10.058L16.6724 5.37798C16.5577 5.01298 16.4995 4.63258 16.4999 4.24998V4.24998Z" fill="#2B1628"/>
</svg>
