<svg width="174" height="184" viewBox="0 0 174 184" fill="none" xmlns="http://www.w3.org/2000/svg">
  <circle cx="68.3249" cy="170.304" r="5.67093" transform="rotate(-10 68.3249 170.304)" fill="white" />
  <circle cx="130.081" cy="159.415" r="5.67093" transform="rotate(-10 130.081 159.415)" fill="white" />
  <rect x="58.6625" y="162.593" width="81" height="9.94284" transform="rotate(-10 58.6625 162.593)" fill="white" />
  <path fill-rule="evenodd" clip-rule="evenodd"
    d="M6.33305 61.6165L21.3741 146.918C22.9309 155.748 27.3199 162.652 34.5411 167.631C41.7551 172.605 49.841 174.303 58.7986 172.723L81.5723 168.708L118.01 162.283L140.784 158.267C149.742 156.688 156.762 152.327 161.846 145.184C166.923 138.036 168.682 130.048 167.126 121.218L152.085 35.9165C150.686 27.985 147.673 21.9953 143.046 17.9475C138.419 13.9058 132.588 11.2307 125.55 9.92248C118.508 8.62127 110.475 8.34041 101.45 9.07988C92.4211 9.82641 82.8962 11.0831 72.8758 12.85C63.7663 14.4562 54.9174 16.4393 46.3291 18.7993C37.7478 21.1641 30.2586 24.182 23.8614 27.853C17.4652 31.5299 12.5964 36.0918 9.25494 41.5385C5.90847 46.9922 4.9345 53.6849 6.33305 61.6165ZM37.5409 54.312L23.5218 49.3015L57.6839 43.2778L48.2203 55.2447L38.7294 54.4167L37.5409 54.312ZM52.4313 55.6098L62.912 42.356L84.4564 38.5571L90.5952 46.9985L88.0399 55.1851L88.3033 62.8379L85.5994 71.7739L75.6363 65.8278L62.3879 56.6018L62.0418 56.4441L61.5907 56.4051L52.4313 55.6098ZM94.3926 45.2716L88.9445 37.7657L115.473 33.0879L118.065 37.9624L94.3926 45.2716ZM122.834 37.9191L119.854 32.3157L132.572 30.073L134.87 43.1057L104.486 62.4525L93.4929 65.2133L92.122 56.4579L94.5447 48.0653L121.427 39.7665L123.478 39.1359L122.834 37.9191ZM28.2753 76.6377L24.0853 52.875L36.462 57.3045L36.4932 57.2716L43.4898 70.1594L28.2753 76.6377ZM47.8979 69.4141L41.4189 57.4875L59.8501 59.0907L70.4525 63.6237L60.1501 70.0697L47.8979 69.4141ZM102.159 67.4834L135.431 46.2877L140.955 77.6122L99.2697 69.5284L102.159 67.4834ZM28.7732 79.4617L46.0261 72.1136L57.6726 72.7349L58.2275 72.8149L59.1824 72.815L69.6142 72.3239L77.761 70.2686L86.1912 75.6804L81.2649 80.9579L72.0557 81.0256L32.936 103.07L28.7732 79.4617ZM91.4069 70.5847L103.805 73.4131L141.504 80.7277L142.686 87.4319L112.106 101.591L93.9839 91.2896L91.3809 78.0558L91.4069 70.5847ZM55.9298 93.4655L70.0676 85.4999L89.0055 83.2455L89.6871 92.3298L89.7107 92.8404L90.2623 93.1533L108.534 103.547L82.4933 108.139L55.9298 93.4655ZM33.4724 106.115L52.3997 95.4504L77.0928 109.091L35.2967 116.461L33.4724 106.115ZM118.336 101.819L143.193 90.309L144.412 97.2209L118.336 101.819ZM42.156 132.327C41.9642 131.239 42.6906 130.202 43.7783 130.01L77.2618 124.106C78.3496 123.914 79.3869 124.641 79.5787 125.728L83.7463 149.364C83.9381 150.451 83.2117 151.489 82.124 151.681L48.6405 157.585C47.5527 157.776 46.5154 157.05 46.3236 155.962L42.156 132.327ZM107.497 119.476C106.168 119.375 105.08 120.553 105.311 121.865L109.364 144.847C109.555 145.934 110.593 146.661 111.68 146.469L145.164 140.565C146.252 140.373 146.978 139.336 146.786 138.248L142.733 115.264C142.502 113.952 141.078 113.218 139.864 113.766C136.253 115.395 129.293 118.322 124 119.242C118.8 120.145 111.401 119.773 107.497 119.476Z"
    fill="white" />
</svg>