<svg width="16" height="14" viewBox="0 0 16 14" fill="none" xmlns="http://www.w3.org/2000/svg">
<path d="M15.5686 2.30685C15.0119 2.55351 14.4139 2.72018 13.7853 2.79551C14.4339 2.40738 14.9192 1.79649 15.1506 1.07685C14.5412 1.43884 13.8742 1.69364 13.1786 1.83018C12.7109 1.33076 12.0913 0.999731 11.4162 0.888496C10.741 0.777261 10.048 0.892041 9.44477 1.21502C8.84153 1.53799 8.36179 2.05109 8.08004 2.67465C7.7983 3.29821 7.7303 3.99735 7.88661 4.66351C6.65173 4.60151 5.44369 4.28055 4.34089 3.72145C3.23809 3.16235 2.26517 2.37762 1.48527 1.41818C1.21861 1.87818 1.06527 2.41151 1.06527 2.97951C1.06498 3.49084 1.1909 3.99434 1.43186 4.44534C1.67282 4.89633 2.02138 5.28087 2.44661 5.56485C1.95346 5.54916 1.47119 5.4159 1.03994 5.17618V5.21618C1.03989 5.93334 1.28796 6.62843 1.74206 7.18351C2.19616 7.73859 2.82832 8.11947 3.53127 8.26151C3.0738 8.38532 2.59417 8.40356 2.12861 8.31485C2.32694 8.93192 2.71327 9.47153 3.23352 9.85813C3.75377 10.2447 4.38189 10.459 5.02994 10.4708C3.92983 11.3345 2.5712 11.8029 1.17261 11.8008C0.924862 11.8009 0.677325 11.7864 0.431274 11.7575C1.85093 12.6703 3.5035 13.1547 5.19127 13.1528C10.9046 13.1528 14.0279 8.42085 14.0279 4.31685C14.0279 4.18351 14.0246 4.04885 14.0186 3.91551C14.6261 3.47616 15.1505 2.93211 15.5673 2.30885L15.5686 2.30685V2.30685Z" fill="#FEFAF6"/>
</svg>
