<svg width="20" height="20" viewBox="0 0 20 20" fill="none"
  xmlns="http://www.w3.org/2000/svg">
  <path d="M14.0714 11.7143C13.9009 11.7143 13.7374 11.782 13.6168 11.9026C13.4963 12.0231 13.4286 12.1866 13.4286 12.3571C13.4286 12.5276 13.4963 12.6911 13.6168 12.8117C13.7374 12.9323 13.9009 13 14.0714 13H16.2143C16.3848 13 16.5483 12.9323 16.6688 12.8117C16.7894 12.6911 16.8571 12.5276 16.8571 12.3571C16.8571 12.1866 16.7894 12.0231 16.6688 11.9026C16.5483 11.782 16.3848 11.7143 16.2143 11.7143H14.0714ZM0.571412 2.92855C0.571412 2.3034 0.819753 1.70385 1.2618 1.2618C1.70385 0.819752 2.3034 0.571411 2.92856 0.571411H14.5C15.1251 0.571411 15.7247 0.819752 16.1667 1.2618C16.6088 1.70385 16.8571 2.3034 16.8571 2.92855V4.00684C17.6708 4.0612 18.4333 4.42277 18.9903 5.01831C19.5473 5.61384 19.8572 6.39883 19.8571 7.21427V16.2143C19.8571 17.0667 19.5185 17.8843 18.9157 18.4871C18.3129 19.0899 17.4953 19.4286 16.6428 19.4286H3.78913C2.93665 19.4286 2.11908 19.0899 1.51628 18.4871C0.913488 17.8843 0.574841 17.0667 0.574841 16.2143V7.21427H0.571412V3.14284H0.580841C0.574489 3.07159 0.571343 3.00009 0.571412 2.92855ZM16.6428 5.2857H1.86056V16.2143C1.86056 16.7258 2.06374 17.2163 2.42542 17.578C2.7871 17.9397 3.27764 18.1428 3.78913 18.1428H16.6428C17.1543 18.1428 17.6449 17.9397 18.0065 17.578C18.3682 17.2163 18.5714 16.7258 18.5714 16.2143V7.21427C18.5714 6.70278 18.3682 6.21224 18.0065 5.85056C17.6449 5.48889 17.1543 5.2857 16.6428 5.2857ZM15.5714 2.92855C15.5714 2.33713 15.0914 1.85713 14.5 1.85713H2.92856C2.64439 1.85713 2.37187 1.97001 2.17094 2.17094C1.97001 2.37187 1.85713 2.64439 1.85713 2.92855C1.85713 3.21271 1.97001 3.48524 2.17094 3.68617C2.37187 3.8871 2.64439 3.99998 2.92856 3.99998H15.5714V2.92855Z" fill="#012733"/>
</svg>
