<svg width="20" height="20" viewBox="0 0 20 20" fill="none" xmlns="http://www.w3.org/2000/svg">
<path d="M10.6897 9.29632H19.9738C19.6345 4.31704 15.6624 0.339755 10.6897 0V9.29632Z" fill="white"/>
<path fill-rule="evenodd" clip-rule="evenodd" d="M19.9738 9.29632C19.9699 9.23863 19.9655 9.18109 19.9606 9.12368C19.5472 4.28278 15.6966 0.427131 10.8621 0.0132681C10.8047 0.00835995 10.7473 0.0039359 10.6897 0V9.29632H19.9738ZM10.8621 9.12368H19.7875C19.3752 4.37829 15.6012 0.599393 10.8621 0.186549V9.12368Z" fill="white"/>
<path d="M17.3745 16.7727C18.8721 15.1464 19.8403 13.0237 20 10.6775H11.2872L17.3745 16.7727Z" fill="white"/>
<path fill-rule="evenodd" clip-rule="evenodd" d="M20 10.6775H11.2872L17.3745 16.7727C17.4135 16.7304 17.4521 16.6877 17.4904 16.6446C18.8858 15.0763 19.7976 13.0669 19.9868 10.8501C19.9916 10.7927 19.9961 10.7352 20 10.6775ZM19.8137 10.8501H11.7035L17.3683 16.5224C18.733 14.9854 19.6254 13.0191 19.8137 10.8501Z" fill="white"/>
<path d="M9.31034 9.70099V0C4.10966 0.355293 0 4.68925 0 9.98688C0 12.5033 0.92931 14.8011 2.46 16.5603L9.31034 9.70099Z" fill="white"/>
<path fill-rule="evenodd" clip-rule="evenodd" d="M9.31034 0C9.25274 0.00393548 9.19527 0.00835911 9.13793 0.0132668C4.01912 0.451423 0 4.74793 0 9.98688C0 12.441 0.883906 14.6873 2.34752 16.4288C2.38464 16.473 2.42214 16.5168 2.46 16.5603L9.31034 9.70099V0ZM9.13793 0.186548C4.11446 0.624111 0.172414 4.84343 0.172414 9.98688C0.172414 12.3934 1.03706 14.5962 2.4699 16.3063L9.13793 9.62948V0.186548Z" fill="white"/>
<path d="M9.79794 11.1656L3.43518 17.5368C5.19208 19.0695 7.4869 20 10 20C12.4104 20 14.6193 19.144 16.3452 17.7215L9.79794 11.1656Z" fill="white"/>
<path fill-rule="evenodd" clip-rule="evenodd" d="M3.43518 17.5368C3.47864 17.5747 3.52242 17.6122 3.56653 17.6494C5.30574 19.1149 7.54907 20 10 20C12.348 20 14.505 19.1877 16.2104 17.8307C16.2556 17.7946 16.3006 17.7583 16.3452 17.7215L9.79794 11.1656L3.43518 17.5368ZM3.68891 17.5268C5.39671 18.9616 7.59667 19.8273 10 19.8273C12.3005 19.8273 14.414 19.0341 16.0877 17.7078L9.79794 11.4098L3.68891 17.5268Z" fill="white"/>
</svg>
