<svg width="19" height="19" viewBox="0 0 19 19" fill="none"
  xmlns="http://www.w3.org/2000/svg">
  <path fill-rule="evenodd" clip-rule="evenodd" d="M17.7823 0.220341C17.8522 0.290009 17.9076 0.372772 17.9454 0.46389C17.9832 0.555008 18.0027 0.65269 18.0027 0.751341C18.0027 0.849992 17.9832 0.947674 17.9454 1.03879C17.9076 1.12991 17.8522 1.21267 17.7823 1.28234L1.28231 17.7823C1.14148 17.9232 0.950477 18.0023 0.751314 18.0023C0.55215 18.0023 0.361143 17.9232 0.220313 17.7823C0.0794835 17.6415 0.000366211 17.4505 0.000366211 17.2513C0.000366211 17.0522 0.0794835 16.8612 0.220313 16.7203L16.7203 0.220341C16.79 0.150496 16.8727 0.0950816 16.9639 0.057272C17.055 0.0194623 17.1527 0 17.2513 0C17.35 0 17.4476 0.0194623 17.5388 0.057272C17.6299 0.0950816 17.7126 0.150496 17.7823 0.220341Z" fill="#2B1628"/>
  <path fill-rule="evenodd" clip-rule="evenodd" d="M0.220341 0.220341C0.150496 0.290009 0.0950816 0.372772 0.057272 0.46389C0.0194623 0.555008 0 0.65269 0 0.751341C0 0.849992 0.0194623 0.947674 0.057272 1.03879C0.0950816 1.12991 0.150496 1.21267 0.220341 1.28234L16.7203 17.7823C16.8612 17.9232 17.0522 18.0023 17.2513 18.0023C17.4505 18.0023 17.6415 17.9232 17.7823 17.7823C17.9232 17.6415 18.0023 17.4505 18.0023 17.2513C18.0023 17.0522 17.9232 16.8612 17.7823 16.7203L1.28234 0.220341C1.21267 0.150496 1.12991 0.0950816 1.03879 0.057272C0.947674 0.0194623 0.849992 0 0.751341 0C0.65269 0 0.555008 0.0194623 0.46389 0.057272C0.372772 0.0950816 0.290009 0.150496 0.220341 0.220341Z" fill="#2B1628"/>
</svg>
